HIERARCHY
ROOT Hips
{
	OFFSET 0.00 0.00 0.00
	CHANNELS 6 Xposition Yposition Zposition Xrotation Yrotation Zrotation
	JOINT Spine
	{
		OFFSET 0.00000 7.06766 0.00000
		CHANNELS 3 Xrotation Yrotation Zrotation
		JOINT Head
		{
			OFFSET 0.00000 15.03989 0.00000
			CHANNELS 3 Xrotation Yrotation Zrotation
			End Site
			{
				OFFSET 0.00000 4.52755 0.00000
			}
		}
		JOINT LeftShoulder
		{
			OFFSET 0.00000 10.53037 0.00000
			CHANNELS 3 Xrotation Yrotation Zrotation
			JOINT LeftArm
			{
				OFFSET 7.02886 0.00000 0.00000
				CHANNELS 3 Xrotation Yrotation Zrotation
				JOINT LeftForeArm
				{
					OFFSET 10.79770 0.00000 0.00000
					CHANNELS 3 Yrotation Zrotation Xrotation
					JOINT LeftHand
					{
						OFFSET 7.90744 0.00000 0.00000
						CHANNELS 3 Xrotation Yrotation Zrotation
						JOINT LeftHandThumb1
						{
							OFFSET 0.00000 0.00000 0.00000
							CHANNELS 3 Xrotation Zrotation Yrotation
							End Site
							{
								OFFSET 0.00000 0.00000 3.93700
							}
						}
						End Site
						{
							OFFSET 3.93700 0.00000 0.00000
						}
					}
				}
			}
		}
		JOINT RightShoulder
		{
			OFFSET 0.00000 10.53037 0.00000
			CHANNELS 3 Xrotation Yrotation Zrotation
			JOINT RightArm
			{
				OFFSET -7.02886 0.00000 0.00000
				CHANNELS 3 Xrotation Yrotation Zrotation
				JOINT RightForeArm
				{
					OFFSET -10.79770 0.00000 0.00000
					CHANNELS 3 Yrotation Zrotation Xrotation
					JOINT RightHand
					{
						OFFSET -7.90744 0.00000 0.00000
						CHANNELS 3 Xrotation Yrotation Zrotation
						JOINT RightHandThumb1
						{
							OFFSET 0.00000 0.00000 0.00000
							CHANNELS 3 Xrotation Zrotation Yrotation
							End Site
							{
								OFFSET 0.00000 0.00000 3.93700
							}
						}
						End Site
						{
							OFFSET -3.93700 0.00000 0.00000
						}
					}
				}
			}
		}
	}
	JOINT LeftUpLeg
	{
		OFFSET 4.01300 0.00000 0.00000
		CHANNELS 3 Xrotation Yrotation Zrotation
		JOINT LeftLeg
		{
			OFFSET 0.00000 -16.89976 0.00000
			CHANNELS 3 Xrotation Yrotation Zrotation
			JOINT LeftFoot
			{
				OFFSET 0.00000 -17.38918 0.00000
				CHANNELS 3 Xrotation Yrotation Zrotation
				JOINT LeftToeBase
				{
					OFFSET 0.00000 -1.27456 4.75673
					CHANNELS 3 Xrotation Yrotation Zrotation
					End Site
					{
						OFFSET 0.00000 0.00000 2.95275
					}
				}
			}
		}
	}
	JOINT RightUpLeg
	{
		OFFSET -4.01300 0.00000 0.00000
		CHANNELS 3 Xrotation Yrotation Zrotation
		JOINT RightLeg
		{
			OFFSET 0.00000 -16.89976 0.00000
			CHANNELS 3 Xrotation Yrotation Zrotation
			JOINT RightFoot
			{
				OFFSET 0.00000 -17.38918 0.00000
				CHANNELS 3 Xrotation Yrotation Zrotation
				JOINT RightToeBase
				{
					OFFSET 0.00000 -1.27456 4.75673
					CHANNELS 3 Xrotation Yrotation Zrotation
					End Site
					{
						OFFSET 0.00000 0.00000 2.95275
					}
				}
			}
		}
	}
}
MOTION
Frames: 19
Frame Time: 0.008333
 16.3139 35.3412 -21.3051 96.3720 -80.6770 94.5661 -20.8972 -1.1996 2.3769 7.3311 0.5477 -0.1410 -36.6759 2.2165 18.3774 2.9871 -0.1354 -6.8148 2.3803 0.0000 13.1488 1.0178 7.9057 -7.3598 33.1476 -0.0000 26.2537 -0.1625 -12.6313 -12.5884 -35.4352 1.1954 7.3366 4.8507 -0.0000 39.6216 1.2790 -5.8260 12.4049 32.8623 0.0000 -24.3270 -2.3918 12.6437 4.8980 -5.8788 0.0000 0.0000 -18.1583 29.7976 4.6909 26.9365 0.0000 -0.0000 -2.3928 -9.1549 -1.3247 -2.5536 0.0000 0.0000 -17.2584 -27.6375 1.6052 24.4449 0.0000 0.0000
 16.3183 35.3416 -21.3036 96.2868 -80.6984 94.4872 -20.8762 -1.2143 2.3778 7.3339 0.5405 -0.1526 -36.6835 2.2128 18.3799 2.9747 -0.1313 -6.8271 2.3760 0.0000 13.1284 1.0214 7.9354 -7.3587 33.1476 -0.0000 26.2537 -0.1637 -12.6270 -12.5751 -35.3619 1.2120 7.3470 4.8585 -0.0000 39.5244 1.2714 -5.7983 12.3903 32.8623 0.0000 -24.3270 -2.3818 12.6469 4.8890 -5.8783 -0.0000 -0.0000 -18.1446 29.7780 4.6870 26.9264 -0.0000 0.0000 -2.3741 -9.1611 -1.3332 -2.5636 -0.0000 0.0000 -17.2511 -27.6391 1.5911 24.4692 -0.0000 0.0000
 16.3234 35.3423 -21.3028 96.2080 -80.7105 94.4128 -20.8706 -1.2188 2.3830 7.3493 0.5315 -0.1595 -36.6793 2.1960 18.3694 2.9786 -0.1206 -6.8318 2.3742 0.0000 13.0994 1.0275 7.9448 -7.3936 33.1476 -0.0000 26.2537 -0.1610 -12.6032 -12.5649 -35.3542 1.1908 7.3380 4.8552 -0.0000 39.4545 1.2869 -5.8195 12.4919 32.8623 0.0000 -24.3270 -2.3812 12.6359 4.8837 -5.8757 -0.0000 -0.0000 -18.1324 29.7803 4.6826 26.9440 -0.0000 0.0000 -2.3683 -9.1521 -1.3389 -2.5663 0.0000 0.0000 -17.2514 -27.6686 1.6226 24.4691 -0.0000 0.0000
 16.3290 35.3430 -21.3017 96.1234 -80.7215 94.3332 -20.8677 -1.2220 2.3923 7.3660 0.5282 -0.1723 -36.6676 2.1870 18.3542 2.9750 -0.1223 -6.8400 2.3844 0.0000 13.0748 1.0317 7.9422 -7.4259 33.1476 -0.0000 26.2537 -0.1436 -12.5925 -12.5612 -35.3876 1.1810 7.3447 4.8352 -0.0000 39.4707 1.3136 -5.9295 12.5146 32.8623 0.0000 -24.3270 -2.3834 12.6294 4.8770 -5.8727 0.0000 0.0000 -18.1207 29.7765 4.6678 26.9192 -0.0000 0.0000 -2.3662 -9.1546 -1.3455 -2.5661 0.0000 -0.0000 -17.2475 -27.6787 1.6264 24.4988 0.0000 0.0000
 16.3337 35.3435 -21.3014 96.0033 -80.7410 94.2130 -20.8538 -1.2297 2.4002 7.3847 0.4915 -0.1922 -36.6669 2.1527 18.3391 2.9726 -0.0945 -6.8470 2.3769 0.0000 13.0652 1.0368 7.9624 -7.4432 33.1476 -0.0000 26.2537 -0.1529 -12.5680 -12.5598 -35.3776 1.1554 7.3401 4.8268 -0.0000 39.4577 1.3196 -5.9311 12.5674 32.8623 0.0000 -24.3270 -2.3770 12.6136 4.8764 -5.8709 -0.0000 0.0000 -18.1047 29.7688 4.6594 26.9019 -0.0000 0.0000 -2.3511 -9.1616 -1.3459 -2.5688 -0.0000 0.0000 -17.2422 -27.6819 1.6119 24.4679 -0.0000 0.0000
 16.3393 35.3439 -21.3008 95.8997 -80.7491 94.1106 -20.8466 -1.2363 2.4064 7.3790 0.4940 -0.1869 -36.6741 2.1384 18.3406 2.9828 -0.1009 -6.8724 2.4040 0.0000 13.0828 1.0308 7.9478 -7.4144 33.1476 -0.0000 26.2537 -0.1622 -12.5609 -12.5527 -35.4890 1.1405 7.3502 4.8067 -0.0000 39.5528 1.3086 -5.8785 12.5731 32.8623 0.0000 -24.3270 -2.3814 12.6050 4.8755 -5.8706 -0.0000 -0.0000 -18.0954 29.7594 4.6618 26.9151 -0.0000 -0.0000 -2.3489 -9.1652 -1.3474 -2.5720 -0.0000 -0.0000 -17.2404 -27.6880 1.6073 24.4703 0.0000 -0.0000
 16.3447 35.3446 -21.2997 95.8359 -80.7547 94.0498 -20.8368 -1.2415 2.4192 7.3679 0.4888 -0.2080 -36.6997 2.1245 18.3332 3.0113 -0.0932 -6.8817 2.3893 0.0000 13.0397 1.0384 7.9774 -7.4410 33.1476 -0.0000 26.2537 -0.1708 -12.5696 -12.5628 -35.4446 1.1525 7.3776 4.7954 -0.0000 39.4732 1.3019 -5.8208 12.6305 32.8623 0.0000 -24.3270 -2.3845 12.5875 4.8701 -5.8749 0.0000 -0.0000 -18.0838 29.7762 4.6357 26.9214 -0.0000 -0.0000 -2.3536 -9.1584 -1.3529 -2.5678 0.0000 0.0000 -17.2360 -27.7016 1.5950 24.4651 -0.0000 0.0000
 16.3501 35.3453 -21.2994 95.6975 -80.7612 93.9131 -20.8349 -1.2511 2.4246 7.3802 0.4793 -0.2193 -36.6903 2.1092 18.3295 3.0004 -0.0872 -6.9028 2.3854 0.0000 13.0275 1.0424 8.0050 -7.4438 33.1476 -0.0000 26.2537 -0.1447 -12.5789 -12.5584 -35.4810 1.1540 7.4009 4.7689 -0.0000 39.4349 1.3047 -5.7955 12.7104 32.8623 0.0000 -24.3270 -2.3959 12.5800 4.8701 -5.8684 -0.0000 -0.0000 -18.0816 29.7551 4.6524 26.9206 -0.0000 0.0000 -2.3533 -9.1793 -1.3550 -2.5723 0.0000 0.0000 -17.2284 -27.6969 1.6059 24.5012 -0.0000 0.0000
 16.3557 35.3459 -21.2985 95.6172 -80.7646 93.8323 -20.8293 -1.2624 2.4337 7.3759 0.4988 -0.2121 -36.7199 2.0886 18.3393 3.0117 -0.0784 -6.9288 2.3885 0.0000 13.0315 1.0411 8.0148 -7.4258 33.1476 -0.0000 26.2537 -0.1441 -12.5762 -12.5623 -35.5323 1.1458 7.4226 4.7683 -0.0000 39.4863 1.2776 -5.7352 12.5807 32.8623 0.0000 -24.3270 -2.4047 12.5698 4.8682 -5.8675 0.0000 0.0000 -18.0664 29.7559 4.6344 26.9149 -0.0000 -0.0000 -2.3548 -9.1813 -1.3540 -2.5788 -0.0000 0.0000 -17.2100 -27.7180 1.6246 24.4835 0.0000 -0.0000
 16.3611 35.3465 -21.2976 95.5521 -80.7694 93.7697 -20.8220 -1.2666 2.4448 7.3769 0.5147 -0.2236 -36.7215 2.0799 18.3372 3.0050 -0.0769 -6.9439 2.3984 0.0000 13.0227 1.0419 8.0065 -7.4388 33.1476 -0.0000 26.2537 -0.1362 -12.5772 -12.5573 -35.5615 1.1413 7.4331 4.7622 -0.0000 39.5077 1.2372 -5.6096 12.4592 32.8623 0.0000 -24.3270 -2.4158 12.5778 4.8649 -5.8628 -0.0000 -0.0000 -18.0592 29.7493 4.6151 26.9164 -0.0000 -0.0000 -2.3634 -9.1899 -1.3594 -2.5688 -0.0000 -0.0000 -17.2085 -27.7082 1.6189 24.4895 0.0000 -0.0000
 16.3663 35.3473 -21.2975 95.4698 -80.7707 93.6906 -20.8240 -1.2792 2.4518 7.3848 0.5309 -0.2294 -36.7282 2.0609 18.3281 3.0121 -0.0598 -6.9449 2.4018 0.0000 13.0128 1.0396 7.9984 -7.4300 33.1476 -0.0000 26.2537 -0.1443 -12.5632 -12.5529 -35.5557 1.1431 7.4383 4.7379 -0.0000 39.4926 1.2510 -5.6628 12.4792 32.8623 0.0000 -24.3270 -2.4244 12.5629 4.8637 -5.8594 0.0000 -0.0000 -18.0405 29.7310 4.6293 26.9294 -0.0000 0.0000 -2.3681 -9.1979 -1.3624 -2.5719 0.0000 -0.0000 -17.2043 -27.7129 1.6280 24.4596 0.0000 -0.0000
 16.3717 35.3476 -21.2971 95.4223 -80.7730 93.6435 -20.8172 -1.2824 2.4619 7.3759 0.5594 -0.2227 -36.7199 2.0570 18.3314 2.9901 -0.0595 -6.9602 2.4033 0.0000 13.0225 1.0414 7.9979 -7.4433 33.1476 -0.0000 26.2537 -0.1404 -12.5582 -12.5475 -35.5438 1.1382 7.4459 4.7338 -0.0000 39.4426 1.2735 -5.7078 12.6000 32.8623 0.0000 -24.3270 -2.4355 12.5573 4.8628 -5.8544 -0.0000 0.0000 -18.0308 29.7238 4.6298 26.9081 0.0000 -0.0000 -2.3780 -9.2160 -1.3641 -2.5643 -0.0000 -0.0000 -17.1968 -27.7011 1.6478 24.4721 0.0000 -0.0000
 16.3775 35.3484 -21.2966 95.4083 -80.7749 93.6319 -20.8077 -1.2861 2.4731 7.3664 0.5808 -0.2264 -36.7170 2.0506 18.3279 2.9903 -0.0510 -6.9666 2.4092 0.0000 13.0120 1.0394 7.9885 -7.4377 33.1476 -0.0000 26.2537 -0.1409 -12.5538 -12.5428 -35.5579 1.1402 7.4558 4.7220 -0.0000 39.4305 1.2803 -5.7250 12.6281 32.8623 0.0000 -24.3270 -2.4497 12.5838 4.8606 -5.8479 0.0000 -0.0000 -18.0276 29.7078 4.5971 26.9541 -0.0000 0.0000 -2.3865 -9.2006 -1.3665 -2.5607 -0.0000 -0.0000 -17.1955 -27.7155 1.6436 24.4894 0.0000 0.0000
 16.3831 35.3489 -21.2960 95.2931 -80.7717 93.5191 -20.8069 -1.3052 2.4812 7.3571 0.6061 -0.2244 -36.7297 2.0372 18.3278 2.9693 -0.0319 -6.9750 2.4057 0.0000 13.0505 1.0410 7.9840 -7.4532 33.1476 -0.0000 26.2537 -0.1452 -12.5421 -12.5374 -35.5603 1.1443 7.4549 4.7060 -0.0000 39.4391 1.2878 -5.7596 12.6265 32.8623 0.0000 -24.3270 -2.4644 12.5604 4.8576 -5.8499 -0.0000 -0.0000 -18.0127 29.7132 4.5995 26.9101 -0.0000 0.0000 -2.4025 -9.2311 -1.3692 -2.5543 -0.0000 0.0000 -17.1927 -27.7075 1.6405 24.4889 -0.0000 0.0000
 16.3884 35.3496 -21.2959 95.2640 -80.7743 93.4932 -20.7965 -1.3046 2.4876 7.3471 0.6035 -0.2242 -36.7066 2.0357 18.3304 2.9487 -0.0299 -6.9864 2.4048 0.0000 13.0521 1.0445 7.9796 -7.4820 33.1476 -0.0000 26.2537 -0.1743 -12.5346 -12.5344 -35.5932 1.1394 7.4613 4.7031 -0.0000 39.4905 1.2946 -5.7959 12.6136 32.8623 0.0000 -24.3270 -2.4788 12.5622 4.8566 -5.8347 0.0000 -0.0000 -18.0103 29.7041 4.5898 26.9264 -0.0000 0.0000 -2.4105 -9.2322 -1.3734 -2.5504 0.0000 0.0000 -17.1830 -27.7041 1.6451 24.4411 -0.0000 0.0000
 16.3935 35.3503 -21.2959 95.2367 -80.7773 93.4695 -20.7868 -1.3080 2.4927 7.3423 0.6354 -0.2123 -36.7086 2.0273 18.3377 2.9380 -0.0306 -7.0008 2.4151 0.0000 13.0377 1.0445 7.9718 -7.4896 33.1476 -0.0000 26.2537 -0.1716 -12.5263 -12.5249 -35.6018 1.1345 7.4629 4.7094 -0.0000 39.4909 1.3013 -5.8259 12.6146 32.8623 0.0000 -24.3270 -2.4883 12.5732 4.8523 -5.8320 -0.0000 -0.0000 -17.9978 29.6987 4.5727 26.9376 -0.0000 -0.0000 -2.4213 -9.2380 -1.3772 -2.5419 -0.0000 0.0000 -17.1933 -27.7056 1.6379 24.4669 -0.0000 -0.0000
 16.3990 35.3512 -21.2957 95.1808 -80.7772 93.4176 -20.7823 -1.3158 2.4982 7.3429 0.6526 -0.2140 -36.7025 2.0132 18.3352 2.9627 -0.0198 -7.0067 2.4120 0.0000 13.0124 1.0473 7.9750 -7.5062 33.1476 -0.0000 26.2537 -0.1697 -12.5159 -12.5207 -35.5985 1.1248 7.4627 4.7232 -0.0000 39.4806 1.3055 -5.8493 12.6053 32.8623 0.0000 -24.3270 -2.5016 12.5611 4.8497 -5.8234 -0.0000 0.0000 -17.9902 29.7033 4.5586 26.9409 0.0000 -0.0000 -2.4317 -9.2217 -1.3825 -2.5375 -0.0000 -0.0000 -17.1822 -27.7220 1.6161 24.4732 -0.0000 -0.0000
 16.4042 35.3518 -21.2960 95.0575 -80.7725 93.2966 -20.7817 -1.3297 2.5015 7.3384 0.6603 -0.2120 -36.6895 2.0020 18.3377 2.9612 -0.0185 -7.0179 2.4274 0.0000 13.0104 1.0466 7.9458 -7.5280 33.1476 -0.0000 26.2537 -0.1877 -12.5115 -12.5273 -35.5656 1.1161 7.4682 4.7419 -0.0000 39.4405 1.3159 -5.8345 12.7335 32.8623 0.0000 -24.3270 -2.5254 12.5490 4.8503 -5.8118 0.0000 -0.0000 -17.9835 29.6939 4.5581 26.9523 0.0000 -0.0000 -2.4443 -9.2445 -1.3847 -2.5384 0.0000 -0.0000 -17.1669 -27.7232 1.6504 24.4618 0.0000 -0.0000
 16.4085 35.3526 -21.2958 94.9941 -80.7770 93.2357 -20.7741 -1.3367 2.5099 7.3415 0.6713 -0.2140 -36.6673 1.9961 18.3373 2.9691 -0.0194 -7.0301 2.4406 0.0000 12.9843 1.0453 7.9299 -7.5337 33.1476 -0.0000 26.2537 -0.1835 -12.5095 -12.5271 -35.5501 1.1209 7.4708 4.7442 -0.0000 39.4266 1.3123 -5.8197 12.7305 32.8623 0.0000 -24.3270 -2.5326 12.5480 4.8466 -5.8079 0.0000 -0.0000 -17.9701 29.6932 4.5413 26.9389 0.0000 0.0000 -2.4506 -9.2458 -1.3876 -2.5301 -0.0000 -0.0000 -17.1697 -27.7231 1.6353 24.3999 -0.0000 0.0000
